<svg xmlns="http://www.w3.org/2000/svg" viewBox="0 0 100 100">
  <defs>
    <linearGradient id="birdGradient" x1="0%" y1="0%" x2="100%" y2="100%">
      <stop offset="0%" style="stop-color:#FFD700;stop-opacity:1" />
      <stop offset="100%" style="stop-color:#FF6B35;stop-opacity:1" />
    </linearGradient>
    <linearGradient id="skyGradient" x1="0%" y1="0%" x2="0%" y2="100%">
      <stop offset="0%" style="stop-color:#87CEEB;stop-opacity:1" />
      <stop offset="100%" style="stop-color:#4682B4;stop-opacity:1" />
    </linearGradient>
  </defs>
  
  <!-- Sky background -->
  <rect width="100" height="100" fill="url(#skyGradient)" />
  
  <!-- Clouds -->
  <circle cx="20" cy="20" r="8" fill="white" opacity="0.7" />
  <circle cx="25" cy="22" r="6" fill="white" opacity="0.7" />
  <circle cx="30" cy="20" r="8" fill="white" opacity="0.7" />
  
  <circle cx="70" cy="15" r="6" fill="white" opacity="0.7" />
  <circle cx="75" cy="17" r="8" fill="white" opacity="0.7" />
  <circle cx="80" cy="15" r="6" fill="white" opacity="0.7" />
  
  <!-- Bird -->
  <circle cx="50" cy="50" r="15" fill="url(#birdGradient)" />
  
  <!-- Bird eye -->
  <circle cx="55" cy="45" r="3" fill="white" />
  <circle cx="56" cy="44" r="1.5" fill="black" />
  
  <!-- Bird beak -->
  <polygon points="65,48 72,52 65,56" fill="#FF8C00" />
  
  <!-- Bird wing -->
  <ellipse cx="45" cy="48" rx="8" ry="12" fill="#FF1493" opacity="0.8" />
  
  <!-- Pipe (simplified) -->
  <rect x="85" y="0" width="8" height="35" fill="#32CD32" />
  <rect x="85" y="65" width="8" height="35" fill="#32CD32" />
  <rect x="83" y="32" width="12" height="6" fill="#228B22" />
  <rect x="83" y="62" width="12" height="6" fill="#228B22" />
</svg>